<svg height="200pt" viewBox="0 0 472.22979 472" width="300pt" xmlns="http://www.w3.org/2000/svg"><path d="m32 472.09375h400c17.671875 0 32-11.121094 32-24.800781v-310.398438c0-13.707031-14.328125-24.800781-32-24.800781h-298.742188c-8.136718-.117188-16.085937 2.4375-22.632812 7.269531l-101.25 78.5625c-5.695312 4.0625-9.164062 10.558594-9.375 17.550781v231.816407c0 13.679687 14.328125 24.800781 32 24.800781zm0 0" fill="#ffd782"/><path d="m471.296875 77.292969c-3.15625-19.121094-12.375-36.71875-26.296875-50.199219-24.878906-24.890625-59.671875-33.753906-84.640625-21.542969-4.789063 2.335938-9.15625 5.449219-12.925781 9.214844l-197.175782 197.175781c-23.542968 23.539063-23.546874 61.707032-.003906 85.25 23.539063 23.542969 61.707032 23.546875 85.25.003906l178.6875-178.703124c11.039063-10.78125 15.429688-26.660157 11.492188-41.578126-3.933594-14.921874-15.585938-26.570312-30.503906-30.507812-14.917969-3.933594-30.800782.457031-41.578126 11.496094l-6.167968 6.160156-147.890625 147.878906c-3.132813 3.125-3.144531 8.195313-.019531 11.332032 3.125 3.132812 8.199218 3.144531 11.332031.019531l147.878906-147.921875 6.152344-6.148438c10.625-10.15625 27.355469-10.15625 37.976562 0 10.496094 10.480469 10.496094 27.492188 0 37.972656l-178.671875 178.691407c-11.035156 11.859375-27.671875 16.75-43.371094 12.746093-15.703124-4.007812-27.960937-16.265624-31.964843-31.96875-4.007813-15.699218.882812-32.332031 12.746093-43.371093l197.140626-197.214844c2.523437-2.519531 5.445312-4.597656 8.648437-6.160156 18.90625-9.25 46.167969-1.648438 66.296875 18.488281 11.480469 11.027344 19.109375 25.457031 21.769531 41.152344 2.429688 12.125-1.078125 24.679687-9.441406 33.789062l-178.6875 178.699219c-2.078125 2.007813-2.914063 4.980469-2.183594 7.777344.734375 2.796875 2.917969 4.980469 5.714844 5.714843 2.796875.730469 5.773437-.101562 7.78125-2.183593l178.6875-178.695313c11.988281-12.632812 17.183594-30.25 13.96875-47.367187zm0 0" fill="#7d8d9c"/><g fill="#e97424"><path d="m128 112.492188c-6.296875.71875-12.292969 3.089843-17.375 6.871093l-101.25 78.5625c-5.695312 4.0625-9.164062 10.558594-9.375 17.550781v.617188h128zm0 0"/><path d="m432 448.09375h-64c-4.417969 0-8-3.582031-8-8s3.582031-8 8-8h64c4.417969 0 8 3.582031 8 8s-3.582031 8-8 8zm0 0"/><path d="m432 416.09375h-192c-4.417969 0-8-3.582031-8-8s3.582031-8 8-8h192c4.417969 0 8 3.582031 8 8s-3.582031 8-8 8zm0 0"/><path d="m432 384.09375h-120c-4.417969 0-8-3.582031-8-8s3.582031-8 8-8h120c4.417969 0 8 3.582031 8 8s-3.582031 8-8 8zm0 0"/><path d="m336 448.09375h-256c-4.417969 0-8-3.582031-8-8s3.582031-8 8-8h256c4.417969 0 8 3.582031 8 8s-3.582031 8-8 8zm0 0"/><path d="m48 448.09375h-16c-4.417969 0-8-3.582031-8-8s3.582031-8 8-8h16c4.417969 0 8 3.582031 8 8s-3.582031 8-8 8zm0 0"/></g></svg>